<?xml version="1.0" encoding="utf-8"?>
<!-- Generator: Adobe Illustrator 24.0.3, SVG Export Plug-In . SVG Version: 6.00 Build 0)  -->
<svg version="1.1" id="Ebene_1" xmlns="http://www.w3.org/2000/svg" xmlns:xlink="http://www.w3.org/1999/xlink" x="0px" y="0px"
	 viewBox="0 0 512 396.8" style="enable-background:new 0 0 512 396.8;" xml:space="preserve">
<style type="text/css">
	.st0{fill:#374E5B;}
</style>
<g>
	<path class="st0" d="M501,0H11C6,0,2,4,2,9v285c0,5,4,9,9,9h188.1v75.8h-25.3c-5,0-9,4-9,9s4,9,9,9h34.3h95.8h34.3c5,0,9-4,9-9
		s-4-9-9-9h-25.3V303H501c5,0,9-4,9-9V9C510,4,506,0,501,0z M217.1,378.8V305h77.8v73.8L217.1,378.8L217.1,378.8z M492,285H20V18
		h472V285z"/>
</g>
</svg>
