<?xml version="1.0" encoding="utf-8"?>
<!-- Generator: Adobe Illustrator 24.1.0, SVG Export Plug-In . SVG Version: 6.00 Build 0)  -->
<svg version="1.1"
	 id="Ebene_1" xmlns:cc="http://creativecommons.org/ns#" xmlns:dc="http://purl.org/dc/elements/1.1/" xmlns:inkscape="http://www.inkscape.org/namespaces/inkscape" xmlns:rdf="http://www.w3.org/1999/02/22-rdf-syntax-ns#" xmlns:sodipodi="http://sodipodi.sourceforge.net/DTD/sodipodi-0.dtd" xmlns:svg="http://www.w3.org/2000/svg"
	 xmlns="http://www.w3.org/2000/svg" xmlns:xlink="http://www.w3.org/1999/xlink" x="0px" y="0px" viewBox="0 0 44 44"
	 style="enable-background:new 0 0 44 44;" xml:space="preserve">
<g transform="translate(0,-952.36218)">
	<path d="M22,952.4c-1.7,0-3,1.3-3,3v16H3c-1.7,0-3,1.3-3,3c0,1.7,1.3,3,3,3h16v16c0,1.7,1.3,3,3,3c1.7,0,3-1.3,3-3v-16h16
		c1.7,0,3-1.3,3-3c0-1.7-1.3-3-3-3H25v-16C25,953.7,23.7,952.4,22,952.4z"/>
</g>
</svg>
