<?xml version="1.0" encoding="utf-8"?>
<!-- Generator: Adobe Illustrator 24.0.3, SVG Export Plug-In . SVG Version: 6.00 Build 0)  -->
<svg version="1.1" id="Ebene_1" xmlns="http://www.w3.org/2000/svg" xmlns:xlink="http://www.w3.org/1999/xlink" x="0px" y="0px"
	 viewBox="0 0 16.9 30.8" style="enable-background:new 0 0 16.9 30.8;" xml:space="preserve">
<style type="text/css">
	.st0{fill:#374E5B;}
</style>
<title>phone smartphone iphone device stand</title>
<path class="st0" d="M14,0.4H3c-1.4,0-2.5,1.1-2.5,2.5v25c0,1.4,1.1,2.5,2.5,2.5h11c1.4,0,2.5-1.1,2.5-2.5v-25
	C16.5,1.6,15.3,0.4,14,0.4z M15.5,27.9c0,0.8-0.7,1.5-1.5,1.5H3c-0.8,0-1.5-0.7-1.5-1.5v-25c0-0.8,0.7-1.5,1.5-1.5h1.5v0.5
	c0,0.3,0.2,0.5,0.5,0.5h7c0.3,0,0.5-0.2,0.5-0.5V1.4H14c0.8,0,1.5,0.7,1.5,1.5V27.9z"/>
</svg>
