<?xml version="1.0" encoding="utf-8"?>
<!-- Generator: Adobe Illustrator 24.1.0, SVG Export Plug-In . SVG Version: 6.00 Build 0)  -->
<svg version="1.1" id="Ebene_1" xmlns="http://www.w3.org/2000/svg" xmlns:xlink="http://www.w3.org/1999/xlink" x="0px" y="0px"
	 viewBox="0 0 67 91" style="enable-background:new 0 0 67 91;" xml:space="preserve">
<style type="text/css">
	.st0{fill:#374E5B;}
</style>
<g>
	<path class="st0" d="M66.5,17.5H67v6h-0.5v63c0,2.2-1.8,4-4,4h-58c-2.2,0-4-1.8-4-4v-82c0-2.2,1.8-4,4-4h48V0h6v0.5h4
		c2.2,0,4,1.8,4,4v4H67v6h-0.5V17.5z M4.5,3.5c-0.6,0-1,0.4-1,1v82c0,0.6,0.4,1,1,1h58c0.6,0,1-0.4,1-1v-82c0-0.6-0.4-1-1-1H4.5z"/>
</g>
</svg>
